HIERARCHY
ROOT Pelvis
{
	OFFSET 0.000000 0.000000 0.000000
	CHANNELS 6 Xposition Yposition Zposition Xrotation Yrotation Zrotation
	JOINT LeftUpLeg_virtual
	{
		OFFSET 0.000000 0.000000 0.000000
		CHANNELS 3 Xrotation Yrotation Zrotation
		JOINT LeftUpLeg
		{
			OFFSET 18.735201 -5.666702 -4.541200
			CHANNELS 3 Xrotation Yrotation Zrotation
			JOINT LeftLeg
			{
				OFFSET -0.021200 -31.938179 0.493100
				CHANNELS 3 Xrotation Yrotation Zrotation
				JOINT LeftFoot
				{
					OFFSET 0.021200 -31.938179 -4.336299
					CHANNELS 3 Xrotation Yrotation Zrotation
					JOINT LeftToeBase
					{
						OFFSET 0.943001 -26.722000 15.023500
						CHANNELS 3 Xrotation Yrotation Zrotation
						End Site
						{
							OFFSET 0 0 0
						}
					}
				}
			}
		}
	}
	JOINT RightUpLeg_virtual
	{
		OFFSET 0.000000 0.000000 0.000000
		CHANNELS 3 Xrotation Yrotation Zrotation
		JOINT RightUpLeg
		{
			OFFSET -18.735201 -5.666702 -4.541200
			CHANNELS 3 Xrotation Yrotation Zrotation
			JOINT RightLeg
			{
				OFFSET 0.018946 -31.938133 0.493100
				CHANNELS 3 Xrotation Yrotation Zrotation
				JOINT RightFoot
				{
					OFFSET -0.018946 -31.938126 -4.336299
					CHANNELS 3 Xrotation Yrotation Zrotation
					JOINT RightToeBase
					{
						OFFSET -0.943001 -26.722004 15.023500
						CHANNELS 3 Xrotation Yrotation Zrotation
						End Site
						{
							OFFSET 0 0 0
						}
					}
				}
			}
		}
	}
	JOINT Hips_virtual
	{
		OFFSET 0.000000 0.000000 0.000000
		CHANNELS 3 Xrotation Yrotation Zrotation
		JOINT Hips
		{
			OFFSET -0.000000 -0.000000 -0.000000
			CHANNELS 3 Xrotation Yrotation Zrotation
			JOINT Spine
			{
				OFFSET 0.000000 10.199997 -0.299500
				CHANNELS 3 Xrotation Yrotation Zrotation
				JOINT Spine1
				{
					OFFSET 0.000000 11.900002 -1.516600
					CHANNELS 3 Xrotation Yrotation Zrotation
					JOINT Spine2
					{
						OFFSET 0.000000 13.600006 -2.842500
						CHANNELS 3 Xrotation Yrotation Zrotation
						JOINT Neck_virtual
						{
							OFFSET 0.000000 0.000000 0.000000
							CHANNELS 3 Xrotation Yrotation Zrotation
							JOINT Neck
							{
								OFFSET 0.000000 9.624100 -2.890100
								CHANNELS 3 Xrotation Yrotation Zrotation
								JOINT Head
								{
									OFFSET 0.000000 14.068802 -1.351900
									CHANNELS 3 Xrotation Yrotation Zrotation
									End Site
									{
										OFFSET 0 0 0
									}
								}
							}
						}
						JOINT LeftShoulder_virtual
						{
							OFFSET 0.000000 0.000000 0.000000
							CHANNELS 3 Xrotation Yrotation Zrotation
							JOINT LeftShoulder
							{
								OFFSET 15.263000 10.923401 -0.547700
								CHANNELS 3 Xrotation Yrotation Zrotation
								JOINT LeftArm
								{
									OFFSET 25.438599 -2.830597 -13.032500
									CHANNELS 3 Xrotation Yrotation Zrotation
									JOINT LeftForeArm
									{
										OFFSET 29.960503 0.000000 0.000000
										CHANNELS 3 Xrotation Yrotation Zrotation
										JOINT LeftHand
										{
											OFFSET 27.849251 0.000000 0.000000
											CHANNELS 3 Xrotation Yrotation Zrotation
											End Site
											{
												OFFSET 0 0 0
											}
										}
									}
								}
							}
						}
						JOINT RightShoulder_virtual
						{
							OFFSET 0.000000 0.000000 0.000000
							CHANNELS 3 Xrotation Yrotation Zrotation
							JOINT RightShoulder
							{
								OFFSET -15.263000 10.923401 -0.547700
								CHANNELS 3 Xrotation Yrotation Zrotation
								JOINT RightArm
								{
									OFFSET -25.438599 -2.830597 -13.032500
									CHANNELS 3 Xrotation Yrotation Zrotation
									JOINT RightForeArm
									{
										OFFSET -29.960503 0.000000 0.000000
										CHANNELS 3 Xrotation Yrotation Zrotation
										JOINT RightHand
										{
											OFFSET -27.849251 0.000000 0.000000
											CHANNELS 3 Xrotation Yrotation Zrotation
											End Site
											{
												OFFSET 0 0 0
											}
										}
									}
								}
							}
						}
					}
				}
			}
		}
	}
}
MOTION
Frames: 11
Frame Time: 0.03333333
183.239273 21.626072 -35.786377 0.000000 0.000000 0.000000 -99.525671 13.378995 39.228409 -120.711818 -9.758317 25.804752 95.475690 -1.965074 -2.852138 30.587301 -2.543716 -11.176034 0.000000 0.000000 0.000000 -109.155049 -11.651631 59.172565 -126.467591 -15.660183 9.302374 78.325529 3.479802 -0.877737 9.900884 2.260292 14.518199 0.000000 0.000000 0.000000 -31.809212 11.966157 17.817091 -107.339503 -22.547472 44.191662 32.669560 9.466439 0.427936 18.740069 4.553615 1.498125 0.000000 0.000000 0.000000 26.300808 4.790068 -3.056492 11.744694 2.146580 -2.063597 0.000000 0.000000 0.000000 22.783950 8.086602 2.736455 1.523701 1.023657 11.839750 -41.371139 -38.781363 -27.948106 10.600897 -77.799427 8.742935 0.000000 0.000000 0.000000 20.640331 6.847389 0.907433 5.244060 13.518114 -5.919991 -37.815598 38.506120 30.099619 -166.999942 83.723899 160.135247 0.000000 0.000000 0.000000 
188.662750 19.561905 -36.257179 0.000000 0.000000 0.000000 -98.411271 18.333399 39.875153 -119.708491 -7.552607 25.503906 96.007489 -1.905373 -1.899703 31.672718 -3.057639 -9.793206 0.000000 0.000000 0.000000 -107.841030 -7.768511 59.928162 -125.123356 -14.621811 9.638522 75.233612 2.913022 -1.089938 8.466999 1.717898 13.521318 0.000000 0.000000 0.000000 -32.142594 15.243159 18.184544 -107.110330 -19.039414 45.373975 32.675488 9.746465 1.040997 18.562999 4.725901 1.918064 0.000000 0.000000 0.000000 26.462398 5.253233 -2.764772 11.737107 2.395178 -1.882270 0.000000 0.000000 0.000000 23.262537 8.242131 2.893298 1.655978 1.748832 11.889291 -35.357980 -37.200782 -25.052712 12.980996 -74.312369 10.535475 0.000000 0.000000 0.000000 21.443994 7.025068 1.223755 5.429432 13.489344 -3.878158 -31.922484 36.193832 30.819945 -148.294349 87.681085 143.220160 0.000000 0.000000 0.000000 
192.678482 18.398411 -38.423325 0.000000 0.000000 0.000000 -96.776663 23.841200 39.897648 -118.389281 -4.836168 24.981431 96.230945 -1.784515 -1.167738 32.252577 -3.343367 -8.635147 0.000000 0.000000 0.000000 -106.362834 -1.001000 61.646917 -122.657753 -12.361119 9.878189 73.400109 2.328785 -1.684248 8.539041 1.565898 11.979999 0.000000 0.000000 0.000000 -31.666126 19.497871 18.475365 -106.087448 -13.658087 47.996962 33.139890 9.759825 1.125128 18.628853 4.800015 2.051918 0.000000 0.000000 0.000000 26.768389 5.486627 -2.596179 11.800276 2.515750 -1.775439 0.000000 0.000000 0.000000 23.799511 8.265009 2.952269 1.914257 1.951671 11.486798 -30.287579 -36.029313 -24.343047 14.849933 -72.376065 11.421577 0.000000 0.000000 0.000000 22.215358 7.136374 1.490903 5.660479 13.140794 -2.135530 -25.422456 33.326781 29.347615 -10.071765 87.106666 6.178714 0.000000 0.000000 0.000000 
195.369598 17.834599 -40.062607 0.000000 0.000000 0.000000 -96.959330 29.443409 41.612924 -117.599383 -2.269887 24.735448 95.998821 -0.744884 -0.486286 32.683309 -2.543899 -6.562619 0.000000 0.000000 0.000000 -105.889031 6.855730 65.487287 -119.885953 -9.916996 10.571007 72.267588 2.163063 -2.068935 8.874622 1.695163 11.146353 0.000000 0.000000 0.000000 -31.016804 23.350499 18.393148 -105.137478 -7.706093 49.837452 32.965877 9.611575 1.250320 18.400914 4.788466 2.177369 0.000000 0.000000 0.000000 26.856036 5.632803 -2.297282 11.777234 2.569585 -1.609349 0.000000 0.000000 0.000000 24.180456 8.278791 2.988347 2.073664 2.102750 11.025553 -24.457412 -34.405883 -22.375254 17.043555 -69.857344 12.730586 0.000000 0.000000 0.000000 22.490292 7.282514 1.825636 5.365733 12.962983 -0.180240 -21.190961 29.724608 28.836178 -1.684828 81.203484 -1.340987 0.000000 0.000000 0.000000 
197.690857 18.366756 -42.216995 0.000000 0.000000 0.000000 -97.700610 35.063937 43.583133 -116.879973 0.452458 24.479337 95.877619 0.680546 0.131755 33.076284 -1.239781 -4.158553 0.000000 0.000000 0.000000 -106.432632 14.403107 68.900339 -117.314824 -6.979798 10.749237 71.364835 1.592353 -2.368349 9.390658 1.384889 10.031381 0.000000 0.000000 0.000000 -29.266292 26.360733 17.650855 -103.281141 -1.477672 51.170722 33.149445 9.342784 1.211137 18.390312 4.700005 2.202619 0.000000 0.000000 0.000000 26.996111 5.605646 -2.063724 11.812254 2.536983 -1.504893 0.000000 0.000000 0.000000 24.638099 8.234871 2.916696 2.336225 2.129686 10.096151 -19.380406 -32.862854 -21.790781 18.479080 -67.662627 13.034559 0.000000 0.000000 0.000000 22.637685 7.364394 2.099257 5.046421 12.706612 1.364987 -18.596604 26.116777 28.703996 -0.676216 75.882473 -1.862473 0.000000 0.000000 0.000000 
199.599106 19.454021 -42.936073 0.000000 0.000000 0.000000 -101.998712 41.427973 48.722512 -117.051315 3.491385 24.470881 95.085242 2.986367 0.699653 32.745351 1.147929 -0.916932 0.000000 0.000000 0.000000 -109.325627 22.093218 75.011822 -114.926293 -3.781168 11.270823 71.543930 1.086993 -2.543869 10.565413 1.114195 9.194571 0.000000 0.000000 0.000000 -28.021176 30.423722 16.844413 -104.625890 6.231763 52.711456 33.162751 8.989321 0.801125 18.257739 4.592793 1.998253 0.000000 0.000000 0.000000 27.250932 5.566445 -2.068799 11.860738 2.510000 -1.522472 0.000000 0.000000 0.000000 25.115459 8.135519 2.715213 2.629374 2.089053 8.683856 -16.361710 -31.765168 -22.948635 18.532677 -66.520510 12.164632 0.000000 0.000000 0.000000 22.462737 7.412873 2.248220 4.411098 12.393476 2.308907 -17.266699 21.960832 28.864851 -1.160048 70.854067 -1.237273 0.000000 0.000000 0.000000 
201.234329 20.945839 -43.146492 0.000000 0.000000 0.000000 -111.632072 48.667208 61.313392 -117.031057 6.630803 25.949927 97.253513 6.470481 1.056232 34.402078 4.985662 3.410578 0.000000 0.000000 0.000000 -114.441671 29.677513 82.434926 -112.684693 0.294032 11.412369 71.488189 0.263107 -2.654527 11.628426 0.438402 8.119970 0.000000 0.000000 0.000000 -26.165802 33.001340 15.317452 -104.829969 13.688533 52.641948 33.332969 8.488228 0.305219 18.212395 4.396025 1.730083 0.000000 0.000000 0.000000 27.423372 5.400061 -2.222003 11.881199 2.426784 -1.636283 0.000000 0.000000 0.000000 25.419317 8.017741 2.408672 2.804799 2.032229 6.786117 -14.436925 -30.845131 -25.958409 18.020472 -65.968098 10.439128 0.000000 0.000000 0.000000 22.148145 7.353796 2.205800 3.822882 11.842165 2.312895 -16.369424 18.634703 28.661355 -1.255396 66.960320 -1.263068 0.000000 0.000000 0.000000 
203.131607 22.263939 -42.575134 0.000000 0.000000 0.000000 -124.788157 56.070143 77.028797 -116.517030 11.668660 26.764924 95.911531 9.625808 0.925327 32.302280 8.570013 6.501879 0.000000 0.000000 0.000000 -119.626747 34.571754 89.912829 -110.760431 3.374878 11.769286 72.443056 -0.139162 -2.653815 13.374076 0.182639 7.644028 0.000000 0.000000 0.000000 -24.367610 35.041889 13.912937 -104.878600 20.221624 52.565535 33.673710 8.209921 -0.066817 18.274880 4.307101 1.550111 0.000000 0.000000 0.000000 27.644892 5.328295 -2.382498 11.925844 2.416357 -1.770969 0.000000 0.000000 0.000000 25.686839 7.955905 2.130934 2.998613 2.121759 4.980443 -11.934986 -29.944393 -28.708542 17.482366 -64.861621 8.559021 0.000000 0.000000 0.000000 21.902798 7.331399 2.188279 3.356161 11.493067 2.387191 -15.124040 16.062756 29.068448 -1.087033 63.847748 -1.307754 0.000000 0.000000 0.000000 
204.926498 23.855537 -41.421310 0.000000 0.000000 0.000000 -141.546245 59.620407 96.390580 -116.164634 16.267291 27.947165 93.480339 11.860480 0.829589 29.374782 10.942521 8.536668 0.000000 0.000000 0.000000 -123.845045 38.469794 95.499773 -108.776479 6.336306 11.420382 73.217087 -0.580709 -2.417677 14.648367 -0.297327 7.533160 0.000000 0.000000 0.000000 -21.585766 37.533105 11.842701 -104.647855 29.430141 52.710776 34.208115 8.083438 -0.424102 18.438205 4.262836 1.379481 0.000000 0.000000 0.000000 27.833941 5.281293 -2.416039 11.958730 2.427249 -1.849415 0.000000 0.000000 0.000000 25.741407 7.689039 1.774850 3.006384 1.596830 2.637224 -9.951381 -29.405221 -31.347478 17.173047 -64.208300 7.062204 0.000000 0.000000 0.000000 21.699989 7.271810 2.136966 3.007118 11.110822 2.327086 -14.550606 12.850954 29.348373 -1.286581 60.842635 -1.301936 0.000000 0.000000 0.000000 
206.636154 25.678001 -40.172546 0.000000 0.000000 0.000000 -157.259314 59.308554 113.521767 -116.683564 20.107425 29.093071 90.896171 12.824566 0.782618 26.504839 11.799494 9.215063 0.000000 0.000000 0.000000 -128.040816 41.719376 100.451216 -106.964314 9.261796 10.717113 73.102798 -0.884109 -1.935481 15.200760 -0.832219 7.953444 0.000000 0.000000 0.000000 -18.176129 41.210247 8.883051 -106.950934 42.827479 53.936334 34.456139 8.269562 -0.518518 18.460145 4.348642 1.377990 0.000000 0.000000 0.000000 27.910829 5.247486 -2.169961 11.948324 2.419256 -1.789784 0.000000 0.000000 0.000000 25.668548 7.432848 1.533277 2.926334 1.066924 0.717323 -8.264918 -28.748335 -33.170868 16.799055 -63.228427 5.821231 0.000000 0.000000 0.000000 21.458615 7.216911 2.114200 2.644660 10.914861 2.367041 -15.124887 9.445017 30.067616 -2.049598 57.984235 -0.917979 0.000000 0.000000 0.000000 
207.958862 27.192921 -39.952057 0.000000 0.000000 0.000000 -166.834160 58.682349 123.855440 -116.718753 23.210858 29.570184 88.480320 12.907321 1.185023 24.013183 11.481183 9.580938 0.000000 0.000000 0.000000 -134.017642 43.509883 106.262929 -106.177531 12.287686 9.716123 72.936831 -0.861112 -1.538100 14.945958 -1.030293 8.646342 0.000000 0.000000 0.000000 -14.097364 44.422331 5.350289 -113.042814 56.463880 58.500031 34.148665 8.772660 -0.075067 18.180630 4.533188 1.674951 0.000000 0.000000 0.000000 27.557407 5.220280 -1.726043 11.745193 2.403836 -1.626129 0.000000 0.000000 0.000000 25.521437 7.157606 1.336041 2.802917 0.344048 -0.875377 -7.094625 -28.382861 -34.273985 16.625131 -62.541474 5.081756 0.000000 0.000000 0.000000 21.046043 7.166801 2.117908 2.203656 10.772904 2.471888 -16.120519 6.389204 31.701801 -3.180059 56.093188 -0.004787 0.000000 0.000000 0.000000 
